<svg width="624" height="378" viewBox="0 0 624 378" fill="none" xmlns="http://www.w3.org/2000/svg">
<g id="about-left">
<g id="me">
<g id="me_2">
<path id="Vector" d="M363.921 344.45H0.952672C0.700007 344.45 0.457706 344.35 0.279045 344.173C0.100384 343.995 0 343.754 0 343.503C0 343.251 0.100384 343.01 0.279045 342.832C0.457706 342.655 0.700007 342.555 0.952672 342.555H363.921C364.173 342.555 364.416 342.655 364.594 342.832C364.773 343.01 364.873 343.251 364.873 343.503C364.873 343.754 364.773 343.995 364.594 344.173C364.416 344.35 364.173 344.45 363.921 344.45Z" fill="#3F3D56"/>
<g id="me_3">
<path id="Vector_2" d="M189.638 220.316C203.844 220.316 215.36 208.861 215.36 194.731C215.36 180.6 203.844 169.146 189.638 169.146C175.432 169.146 163.916 180.6 163.916 194.731C163.916 208.861 175.432 220.316 189.638 220.316Z" fill="#2F2E41"/>
<path id="Vector_3" d="M165.198 358.973L164.517 347.376L209.165 339.241L210.171 356.359L165.198 358.973Z" fill="#FFB8B8"/>
<path id="Vector_4" d="M167.361 338.898L168.675 361.265L154.517 362.088L152.375 325.639C154.234 325.531 156.097 325.788 157.856 326.396C159.616 327.004 161.237 327.95 162.629 329.181C164.02 330.413 165.154 331.905 165.966 333.572C166.778 335.239 167.252 337.049 167.361 338.898Z" fill="#2F2E41"/>
<path id="Vector_5" d="M184.617 358.867L177.201 367.842L138.869 343.66L149.814 330.414L184.617 358.867Z" fill="#FFB8B8"/>
<path id="Vector_6" d="M169.326 372.145L183.628 354.836L194.585 363.794L171.277 392C169.838 390.824 168.646 389.377 167.769 387.743C166.893 386.108 166.348 384.318 166.167 382.474C165.986 380.631 166.172 378.769 166.714 376.997C167.255 375.225 168.143 373.576 169.326 372.145V372.145Z" fill="#2F2E41"/>
<path id="Vector_7" d="M163.275 317.131L158.207 340.896C158.09 341.443 158.097 342.009 158.226 342.553C158.355 343.098 158.604 343.607 158.955 344.044C159.305 344.482 159.748 344.837 160.253 345.083C160.758 345.33 161.311 345.463 161.873 345.472L211.696 346.271C212.258 346.28 212.814 346.166 213.326 345.936C213.838 345.706 214.292 345.366 214.657 344.941C215.021 344.516 215.287 344.016 215.434 343.477C215.582 342.938 215.608 342.373 215.51 341.823L211.152 317.259C210.996 316.381 210.535 315.587 209.849 315.014C209.162 314.441 208.295 314.127 207.399 314.127H167.003C166.129 314.127 165.283 314.426 164.604 314.972C163.925 315.519 163.456 316.281 163.275 317.131V317.131Z" fill="#2F2E41"/>
<path id="Vector_8" d="M171.537 325.498C171.537 325.498 122.951 295.175 113.424 311.284C108.661 319.339 111.043 327.157 114.615 332.961C117.93 338.245 122.689 342.482 128.336 345.176L167.727 364.35L182.017 349.188L172.49 340.66L171.537 325.498Z" fill="#2F2E41"/>
<path id="Vector_9" d="M196.306 320.76C196.306 320.76 259.183 302.756 246.798 336.869C234.413 370.983 187.732 357.717 187.732 357.717L182.969 343.503L199.164 332.131L196.306 320.76Z" fill="#2F2E41"/>
<path id="Vector_10" d="M189.96 223.847C202.883 223.847 213.359 213.426 213.359 200.573C213.359 187.719 202.883 177.299 189.96 177.299C177.037 177.299 166.562 187.719 166.562 200.573C166.562 213.426 177.037 223.847 189.96 223.847Z" fill="#FFB8B8"/>
<path id="Vector_11" d="M191.186 324.521C181.463 324.375 171.79 323.107 162.361 320.744L162.082 320.668L149.026 260.927C147.851 255.677 148.65 250.181 151.271 245.478C153.892 240.774 158.154 237.187 163.252 235.396C178.999 229.776 196.163 229.435 212.123 234.425C217.479 236.141 221.987 239.803 224.748 244.68C227.509 249.557 228.319 255.289 227.019 260.734L212.435 320.618L212.229 320.715C206.169 323.571 198.59 324.521 191.186 324.521Z" fill="#EDE9E9"/>
<path id="Vector_12" d="M173.648 329.162C174.122 327.851 174.879 326.66 175.866 325.672C176.854 324.684 178.047 323.923 179.361 323.443C180.676 322.963 182.081 322.775 183.476 322.894C184.872 323.012 186.224 323.434 187.438 324.128L213.147 301.931L215.473 319.375L190.703 337.779C189.395 339.731 187.412 341.137 185.131 341.731C182.85 342.326 180.43 342.068 178.327 341.006C176.225 339.943 174.587 338.151 173.725 335.968C172.863 333.785 172.835 331.364 173.648 329.162V329.162Z" fill="#FFB8B8"/>
<path id="Vector_13" d="M198.167 334.004C197.749 334.003 197.333 333.942 196.932 333.823C196.281 333.635 195.686 333.294 195.195 332.83C194.704 332.366 194.332 331.791 194.11 331.154L191.007 322.409C190.716 321.601 190.679 320.724 190.901 319.895C191.122 319.065 191.592 318.322 192.247 317.764L227.276 296.847L213.468 235.574L213.819 235.49C213.962 235.455 228.109 232.252 233.907 247.629C237.966 258.399 252.99 281.816 251.93 297.64C251.729 300.805 250.461 303.81 248.331 306.171C246.201 308.531 243.333 310.108 240.191 310.648L200.762 333.118C200.019 333.691 199.107 334.002 198.167 334.004Z" fill="#CCCCCC"/>
<path id="Vector_14" d="M202.096 327.083C201.622 325.773 200.865 324.581 199.877 323.593C198.89 322.605 197.697 321.844 196.383 321.364C195.068 320.884 193.663 320.697 192.268 320.815C190.872 320.934 189.52 321.355 188.306 322.05L162.597 299.853L160.271 317.296L185.041 335.701C186.349 337.652 188.332 339.058 190.613 339.653C192.893 340.247 195.314 339.989 197.417 338.927C199.519 337.865 201.156 336.072 202.019 333.89C202.881 331.707 202.909 329.285 202.096 327.083V327.083Z" fill="#FFB8B8"/>
<path id="Vector_15" d="M180.156 334.004C179.216 334.002 178.303 333.691 177.561 333.118L135.273 312.543C132.131 312.003 129.264 310.426 127.134 308.066C125.004 305.705 123.736 302.7 123.534 299.535C122.475 283.711 140.356 258.399 144.416 247.629C150.213 232.252 164.361 235.454 164.504 235.49L164.855 235.574L148.189 298.742L186.075 317.764C186.731 318.322 187.2 319.065 187.422 319.895C187.643 320.724 187.607 321.601 187.316 322.409L184.213 331.154C183.991 331.791 183.619 332.366 183.128 332.83C182.637 333.294 182.041 333.635 181.391 333.823C180.99 333.942 180.574 334.003 180.156 334.004V334.004Z" fill="#CCCCCC"/>
<path id="Vector_16" d="M230.603 343.503H145.815C144.047 343.501 142.352 342.801 141.102 341.558C139.852 340.314 139.149 338.628 139.146 336.869V290.437C139.149 288.679 139.852 286.993 141.102 285.749C142.352 284.506 144.047 283.806 145.815 283.804H230.603C232.371 283.806 234.066 284.506 235.316 285.749C236.566 286.993 237.27 288.679 237.272 290.437V336.869C237.27 338.628 236.566 340.314 235.316 341.558C234.066 342.801 232.371 343.501 230.603 343.503V343.503Z" fill="#6C63FF"/>
<path id="Vector_17" d="M188.209 319.339C191.366 319.339 193.925 316.794 193.925 313.653C193.925 310.513 191.366 307.968 188.209 307.968C185.052 307.968 182.493 310.513 182.493 313.653C182.493 316.794 185.052 319.339 188.209 319.339Z" fill="white"/>
<path id="Vector_18" d="M166.327 199.625C164.941 196.127 167.216 191.957 170.591 190.262C173.966 188.567 178.04 188.89 181.65 190.007C184.684 190.945 187.528 192.4 190.488 193.549C193.406 194.836 196.594 195.4 199.779 195.195C202.937 194.84 206.079 193.079 207.371 190.192C208.71 187.199 207.799 183.546 205.737 180.992C203.543 178.522 200.703 176.707 197.533 175.747C190.571 173.308 182.53 173.236 176.067 176.782C169.604 180.328 165.212 187.879 166.548 195.099" fill="#2F2E41"/>
</g>
</g>
<g id="leaf2">
<path id="Vector_19" d="M31.117 333.381C32.294 320.773 35.5447 308.442 40.7395 296.882C42.1873 293.665 43.7808 290.519 45.5201 287.443C45.6073 287.283 45.6284 287.094 45.5787 286.918C45.5291 286.742 45.4127 286.593 45.254 286.5C45.0954 286.408 44.907 286.381 44.7285 286.424C44.55 286.467 44.3954 286.578 44.2973 286.733C37.9723 297.934 33.5411 310.093 31.1811 322.724C30.5246 326.252 30.0312 329.804 29.7009 333.381C29.6169 334.283 31.0336 334.277 31.117 333.381V333.381Z" fill="#E6E6E6"/>
<path id="Vector_20" d="M48.9493 289.703C53.9027 289.703 57.9181 285.708 57.9181 280.781C57.9181 275.855 53.9027 271.86 48.9493 271.86C43.996 271.86 39.9805 275.855 39.9805 280.781C39.9805 285.708 43.996 289.703 48.9493 289.703Z" fill="#6C63FF"/>
</g>
<g id="leaf3">
<path id="Vector_21" d="M32.0343 333.618C32.7979 325.438 34.9068 317.439 38.2768 309.939C39.2161 307.852 40.2499 305.811 41.3783 303.816C41.4348 303.712 41.4485 303.59 41.4163 303.476C41.384 303.361 41.3085 303.264 41.2056 303.204C41.1027 303.145 40.9805 303.127 40.8647 303.155C40.7489 303.183 40.6486 303.255 40.585 303.355C36.4816 310.622 33.607 318.51 32.0759 326.704C31.65 328.993 31.3299 331.297 31.1156 333.618C31.0612 334.203 31.9802 334.2 32.0343 333.618H32.0343Z" fill="#E6E6E6"/>
<path id="Vector_22" d="M43.6027 305.282C46.8161 305.282 49.4212 302.69 49.4212 299.494C49.4212 296.298 46.8161 293.707 43.6027 293.707C40.3892 293.707 37.7842 296.298 37.7842 299.494C37.7842 302.69 40.3892 305.282 43.6027 305.282Z" fill="#6C63FF"/>
</g>
<g id="leaf1">
<path id="Vector_23" d="M30.8749 333.071C26.4191 326.155 23.1355 318.557 21.1553 310.582C20.6054 308.362 20.1584 306.12 19.8143 303.857C19.7945 303.74 19.7297 303.635 19.6337 303.565C19.5377 303.495 19.418 303.464 19.2999 303.48C19.1817 303.496 19.0744 303.557 19.0005 303.65C18.9265 303.743 18.8918 303.861 18.9036 303.979C20.1618 312.219 22.7729 320.197 26.6327 327.595C27.7119 329.66 28.8845 331.673 30.1505 333.633C30.4695 334.128 31.1919 333.563 30.8749 333.071V333.071Z" fill="#E6E6E6"/>
<path id="Vector_24" d="M18.8956 304.875C22.1091 304.875 24.7141 302.284 24.7141 299.088C24.7141 295.892 22.1091 293.3 18.8956 293.3C15.6822 293.3 13.0771 295.892 13.0771 299.088C13.0771 302.284 15.6822 304.875 18.8956 304.875Z" fill="#6C63FF"/>
</g>
<path id="Vector_25" d="M13.0117 338.192V326.821C13.013 325.69 13.4651 324.606 14.2688 323.807C15.0725 323.008 16.1621 322.558 17.2987 322.557H43.9736C45.1102 322.558 46.1998 323.008 47.0035 323.807C47.8072 324.606 48.2593 325.69 48.2606 326.821V338.192C48.2593 339.322 47.8072 340.406 47.0035 341.206C46.1998 342.005 45.1102 342.455 43.9736 342.456H17.2987C16.1621 342.455 15.0725 342.005 14.2688 341.206C13.4651 340.406 13.013 339.322 13.0117 338.192V338.192Z" fill="#07594A"/>
</g>
<path id="Vector_26" d="M299.528 351.463C299.528 357.695 294.449 360.528 288.183 360.528C281.917 360.528 276.838 357.695 276.838 351.463C276.838 345.231 279.359 337.959 288.183 340.466C297.007 336.705 299.528 345.231 299.528 351.463Z" fill="#FF6584"/>
<g id="leaf-right1">
<path id="Vector_27" d="M287.63 343.386C287.189 343.387 286.763 343.228 286.431 342.938C286.1 342.649 285.885 342.249 285.829 341.814C285.453 338.704 283.383 332.615 282.51 330.141L282.51 330.14C282.421 329.894 282.394 329.631 282.431 329.372C282.467 329.114 282.566 328.868 282.719 328.656C282.866 328.466 283.051 328.309 283.262 328.196C283.474 328.083 283.707 328.015 283.947 327.998C284.187 327.981 284.427 328.014 284.653 328.096C284.879 328.178 285.085 328.307 285.257 328.473C285.411 328.634 285.53 328.824 285.606 329.032C285.683 329.24 285.716 329.462 285.703 329.683C285.532 332.858 287.859 337.988 289.261 340.764C289.393 341.026 289.46 341.316 289.455 341.609C289.45 341.902 289.373 342.189 289.231 342.446C289.09 342.703 288.888 342.922 288.642 343.084C288.397 343.246 288.116 343.346 287.823 343.376C287.759 343.383 287.695 343.386 287.63 343.386V343.386Z" fill="#3F3D56"/>
<path id="Vector_28" d="M296.026 336.382C299.964 333.176 296.874 326.615 291.945 327.874C291.282 328.032 290.671 328.356 290.17 328.816C287.146 331.657 286.678 338.926 286.678 338.926C286.678 338.926 292.017 339.646 296.026 336.382Z" fill="#3F3D56"/>
</g>
</g>
</svg>
