<svg width="1338" height="1080" viewBox="0 0 1338 1080" fill="none" xmlns="http://www.w3.org/2000/svg">
<g id="background-splash-right">
<path id="Union" fill-rule="evenodd" clip-rule="evenodd" d="M358.32 228.68C355.746 231.992 353.204 235.34 350.693 238.724C157.469 499.214 225.8 877.258 503.314 1083.11C780.828 1288.96 1162.44 1244.67 1355.66 984.18C1358.17 980.795 1360.64 977.39 1363.06 973.967L1363.17 974.051L2158.94 -98.7388L1153.97 -844.194L358.206 228.596L358.32 228.68Z" fill="url(#paint0_linear)"/>
<path id="Subtract" fill-rule="evenodd" clip-rule="evenodd" d="M325 918.038C325 913.344 328.806 909.538 333.5 909.538H506.628C502.736 905.265 498.93 900.931 495.21 896.538H416.5C407.387 896.538 400 889.151 400 880.038C400 870.926 407.387 863.538 416.5 863.538H469.628C342.273 683.716 343.876 425.986 490.371 228.492C492.706 225.343 495.068 222.225 497.454 219.138L497.361 219.069L562.288 131.538H501.5C496.806 131.538 493 127.733 493 123.038C493 118.344 496.806 114.538 501.5 114.538H574.898L586.025 99.5382L454.5 99.5383C445.387 99.5383 438 92.1509 438 83.0382C438 73.9256 445.387 66.5383 454.5 66.5383L610.504 66.5382L1237.7 -779L2060.28 -168.833L1319.94 829.236L1319.85 829.168C1317.59 832.347 1315.29 835.511 1312.95 838.66C1287.49 872.992 1259.01 903.661 1228.23 930.538H1259.5C1268.61 930.538 1276 937.926 1276 947.038C1276 956.151 1268.61 963.538 1259.5 963.538H1186.71C1007.01 1093.17 767.271 1106.1 587.496 980.538H651.5C660.613 980.538 668 973.151 668 964.038C668 954.925 660.613 947.538 651.5 947.538H545.367C537.612 940.743 530.118 933.739 522.886 926.538H333.5C328.806 926.538 325 922.733 325 918.038Z" fill="url(#paint1_linear)"/>
</g>
<defs>
<linearGradient id="paint0_linear" x1="503.314" y1="1083.11" x2="1656.45" y2="-471.466" gradientUnits="userSpaceOnUse">
<stop offset="0.677083" stop-color="#21E6C1" stop-opacity="0.1"/>
</linearGradient>
<linearGradient id="paint1_linear" x1="473.296" y1="1032.32" x2="1611.31" y2="-501.866" gradientUnits="userSpaceOnUse">
<stop offset="0.183737" stop-color="#21E6C1" stop-opacity="0.85"/>
<stop offset="0.639256" stop-color="#278EA5"/>
</linearGradient>
</defs>
</svg>
