<svg width="771" height="662" viewBox="0 0 771 662" fill="none" xmlns="http://www.w3.org/2000/svg">
<g id="me-working" clip-path="url(#clip0)">
<g id="me">
<path id="Vector" d="M420.751 184.6C459.95 184.6 491.727 152.994 491.727 114.004C491.727 75.0154 459.95 43.4084 420.751 43.4084C381.551 43.4084 349.774 75.0154 349.774 114.004C349.774 152.994 381.551 184.6 420.751 184.6Z" fill="#A0616A"/>
<path id="Vector_2" d="M367.775 149.302C367.775 149.302 381.147 249.569 360.574 260.824C340.001 272.078 482.984 273.101 482.984 273.101C482.984 273.101 451.096 186.135 465.497 159.534L367.775 149.302Z" fill="#A0616A"/>
<path id="Vector_3" d="M587.391 273.608L575.499 327.466L550.356 441.41L549.603 447.65L540.926 519.892L535.154 567.883L531.284 600.12C507.752 612.149 490.697 620.454 490.697 620.454C490.697 620.454 489.23 613.138 486.865 603.778C470.351 608.703 439.793 616.873 413.896 618.505C423.326 628.959 427.66 638.78 421.782 646.029C404.042 667.879 330.802 622.105 305.186 605.036C304.59 609.123 304.364 613.254 304.51 617.382L284.907 602.386L286.847 567.883L290.119 509.504L294.231 436.293C292.935 433.158 291.848 429.942 290.978 426.664C284.975 405.429 277.688 363.025 272.099 327.466C267.601 298.847 264.223 274.665 263.509 269.519C263.412 268.847 263.364 268.501 263.364 268.501L371.881 220.807C379.593 238.597 415.605 243.944 415.605 243.944C445.439 241.899 468.826 226.251 468.826 226.251L587.391 273.608Z" fill="#EAE8F5"/>
<path id="Vector_4" d="M498.93 599.996C498.93 599.996 494.336 601.561 486.865 603.778C470.35 608.703 439.792 616.873 413.896 618.505C391.6 619.926 372.759 616.508 369.314 602.041C367.837 595.82 369.931 590.703 374.497 586.498C388.125 573.931 423.722 569.429 451.954 567.883C459.926 567.451 467.3 567.249 473.439 567.173C483.863 567.038 490.697 567.249 490.697 567.249L490.861 567.883L498.93 599.996Z" fill="#A0616A"/>
<path id="Vector_5" d="M361.704 47.2271L348.433 41.9427C348.433 41.9427 376.181 11.5573 414.788 14.1997L403.93 2.30962C403.93 2.30962 430.472 -8.25908 454.6 19.4839C467.285 34.0678 481.96 51.2105 491.109 70.5214H505.321L499.39 83.5122L520.15 96.503L498.841 94.1696C500.111 101.283 500.306 108.546 499.42 115.717C498.506 122.891 494.825 129.43 489.155 133.956V133.956C489.155 133.956 472.697 100.071 472.697 94.7866V107.998C472.697 107.998 459.426 96.1078 459.426 88.1812L452.187 97.4289L448.568 82.8967L403.93 97.4289L411.168 85.5391L383.42 89.5023L394.278 74.9701C394.278 74.9701 362.911 92.1445 361.704 106.677C360.498 121.209 351.316 134.979 351.316 134.979C351.316 134.979 326.717 67.0435 361.704 47.2271Z" fill="#2F2E41"/>
<path id="Vector_6" d="M664.539 521.207C657.309 529.002 639.395 540.743 617.678 553.454C609.6 558.177 601 563.045 592.226 567.883C571.291 579.432 549.371 590.875 531.284 600.12C507.752 612.149 490.697 620.454 490.697 620.454C490.697 620.454 489.23 613.138 486.865 603.778C483.699 591.25 478.931 575.054 473.961 567.883C473.787 567.633 473.613 567.403 473.439 567.173C471.992 565.281 470.534 564.177 469.096 564.177L540.926 519.892L571.967 500.749L549.603 447.65L521.554 381.044L538.484 327.466L555.5 273.608H587.391C587.391 273.608 597.95 296.534 611.453 328.502C613.47 333.283 615.555 338.266 617.678 343.411C645.457 410.613 680.088 504.455 664.539 521.207Z" fill="#D9D5F2"/>
<path id="Vector_7" d="M421.782 646.029C404.042 667.879 330.802 622.105 305.186 605.036C299.607 601.32 296.287 598.968 296.287 598.968L319.722 567.883L327.144 558.043C327.144 558.043 333.785 561.547 343.601 567.249C343.958 567.461 344.315 567.672 344.682 567.883C353.147 572.827 363.774 579.288 374.497 586.498C389.293 596.453 404.254 607.81 413.896 618.505C423.326 628.959 427.66 638.78 421.782 646.029Z" fill="#A0616A"/>
<path id="Vector_8" d="M343.601 567.249C340.982 567.239 338.366 567.451 335.783 567.883C313.593 571.675 307.049 591.653 305.186 605.036C304.59 609.123 304.364 613.255 304.511 617.382L284.907 602.386L277.765 596.924C260.575 590.962 245.257 580.373 231.976 567.883C220.454 556.856 210.119 544.665 201.138 531.508C192.192 518.54 184.217 504.935 177.278 490.803C175.342 486.86 174.301 482.541 174.229 478.153C174.158 473.765 175.057 469.415 176.863 465.411L201.138 411.602L236.618 332.957C236.879 331.085 237.165 329.254 237.477 327.466C244.514 287.337 263.364 269.519 263.364 269.519H277.765L287.397 327.466L299.366 399.457L290.978 426.664L271.597 489.498L290.119 509.504L343.601 567.249Z" fill="#D9D5F2"/>
</g>
<path id="Vector_9" d="M359.9 399.515L372.211 413.801C376.785 412.933 381.561 411.914 386.48 410.769L382.945 399.515L391.59 409.547C443.708 396.798 508.309 372.009 508.309 372.009C508.309 372.009 438.566 377.096 386.493 365.78C363.453 360.774 339.747 372.134 330.293 393.623C324.797 406.113 325.66 416.935 345.151 416.935C351.737 416.823 358.304 416.209 364.795 415.097L359.9 399.515Z" fill="#6C63FF"/>
<g id="lap">
<path id="Vector_10" d="M640.554 634.316V640.144C640.557 641.743 640.259 643.329 639.675 644.819C639.416 645.483 639.103 646.125 638.739 646.739C637.589 648.66 635.956 650.25 634.002 651.354C632.048 652.458 629.839 653.038 627.591 653.037H196.582C194.335 653.038 192.125 652.458 190.171 651.354C188.217 650.25 186.584 648.66 185.434 646.739C185.07 646.125 184.757 645.483 184.498 644.819C183.914 643.329 183.616 641.743 183.619 640.144V634.316C183.619 632.623 183.954 630.946 184.605 629.382C185.256 627.818 186.211 626.396 187.415 625.199C188.619 624.001 190.048 623.052 191.621 622.404C193.194 621.756 194.88 621.423 196.582 621.423H221.426V618.707C221.426 618.636 221.44 618.566 221.467 618.501C221.494 618.435 221.534 618.376 221.584 618.326C221.634 618.276 221.694 618.237 221.76 618.21C221.825 618.183 221.896 618.169 221.967 618.169H234.929C235 618.169 235.071 618.183 235.136 618.21C235.202 618.237 235.262 618.276 235.312 618.326C235.362 618.376 235.402 618.435 235.429 618.501C235.456 618.566 235.47 618.636 235.47 618.707V621.423H243.568V618.707C243.568 618.636 243.582 618.566 243.609 618.501C243.636 618.435 243.676 618.376 243.726 618.326C243.776 618.276 243.836 618.237 243.901 618.21C243.967 618.183 244.037 618.169 244.108 618.169H257.071C257.142 618.169 257.212 618.183 257.278 618.21C257.344 618.237 257.403 618.276 257.453 618.326C257.504 618.376 257.543 618.435 257.571 618.501C257.598 618.566 257.612 618.636 257.611 618.707V621.423H265.719V618.707C265.719 618.636 265.733 618.566 265.76 618.501C265.787 618.435 265.827 618.376 265.877 618.326C265.927 618.276 265.987 618.237 266.053 618.21C266.118 618.183 266.189 618.169 266.26 618.169H279.222C279.293 618.169 279.364 618.183 279.429 618.21C279.495 618.237 279.554 618.276 279.605 618.326C279.655 618.376 279.695 618.435 279.722 618.501C279.749 618.566 279.763 618.636 279.763 618.707V621.423H287.861V618.707C287.861 618.636 287.875 618.566 287.902 618.501C287.929 618.435 287.969 618.376 288.019 618.326C288.069 618.276 288.129 618.237 288.194 618.21C288.26 618.183 288.33 618.169 288.401 618.169H301.364C301.435 618.169 301.505 618.183 301.571 618.21C301.636 618.237 301.696 618.276 301.746 618.326C301.797 618.376 301.836 618.435 301.863 618.501C301.891 618.566 301.904 618.636 301.904 618.707V621.423H310.002V618.707C310.002 618.636 310.016 618.566 310.043 618.501C310.07 618.435 310.11 618.376 310.16 618.326C310.211 618.276 310.27 618.237 310.336 618.21C310.402 618.183 310.472 618.169 310.543 618.169H323.505C323.577 618.169 323.647 618.183 323.712 618.21C323.778 618.237 323.838 618.276 323.888 618.326C323.938 618.376 323.978 618.435 324.005 618.501C324.032 618.566 324.046 618.636 324.046 618.707V621.423H332.154V618.707C332.154 618.636 332.167 618.566 332.195 618.501C332.222 618.435 332.262 618.376 332.312 618.326C332.362 618.276 332.422 618.237 332.487 618.21C332.553 618.183 332.623 618.169 332.694 618.169H345.657C345.728 618.169 345.798 618.183 345.864 618.21C345.929 618.237 345.989 618.276 346.039 618.326C346.089 618.376 346.129 618.435 346.156 618.501C346.184 618.566 346.197 618.636 346.197 618.707V621.423H354.295V618.707C354.295 618.636 354.309 618.566 354.336 618.501C354.363 618.435 354.403 618.376 354.453 618.326C354.504 618.276 354.563 618.237 354.629 618.21C354.694 618.183 354.765 618.169 354.836 618.169H456.375C456.446 618.169 456.516 618.183 456.582 618.21C456.647 618.237 456.707 618.276 456.757 618.326C456.807 618.376 456.847 618.435 456.874 618.501C456.901 618.566 456.915 618.636 456.915 618.707V621.423H465.023V618.707C465.023 618.636 465.037 618.566 465.064 618.501C465.091 618.435 465.131 618.376 465.181 618.326C465.231 618.276 465.291 618.237 465.356 618.21C465.422 618.183 465.492 618.169 465.563 618.169H478.526C478.669 618.17 478.806 618.227 478.907 618.328C479.008 618.428 479.065 618.564 479.066 618.707V621.423H487.164V618.707C487.164 618.636 487.178 618.566 487.205 618.501C487.232 618.435 487.272 618.376 487.323 618.326C487.373 618.276 487.432 618.237 487.498 618.21C487.564 618.183 487.634 618.169 487.705 618.169H500.668C500.739 618.169 500.809 618.183 500.875 618.21C500.94 618.237 501 618.276 501.05 618.326C501.1 618.376 501.14 618.435 501.167 618.501C501.194 618.566 501.208 618.636 501.208 618.707V621.423H509.306V618.707C509.306 618.636 509.32 618.566 509.347 618.501C509.374 618.435 509.414 618.376 509.464 618.326C509.514 618.276 509.574 618.237 509.64 618.21C509.705 618.183 509.776 618.169 509.847 618.169H522.809C522.88 618.169 522.951 618.183 523.016 618.21C523.082 618.237 523.142 618.276 523.192 618.326C523.242 618.376 523.282 618.435 523.309 618.501C523.336 618.566 523.35 618.636 523.35 618.707V621.423H531.457V618.707C531.457 618.636 531.471 618.566 531.498 618.501C531.525 618.435 531.565 618.376 531.615 618.326C531.666 618.276 531.725 618.237 531.791 618.21C531.857 618.183 531.927 618.169 531.998 618.169H544.961C545.102 618.171 545.238 618.228 545.337 618.329C545.437 618.43 545.492 618.565 545.491 618.707V621.423H553.599V618.707C553.599 618.636 553.613 618.566 553.64 618.501C553.667 618.435 553.707 618.376 553.757 618.326C553.807 618.276 553.867 618.237 553.933 618.21C553.998 618.183 554.069 618.169 554.14 618.169H567.102C567.173 618.169 567.244 618.183 567.309 618.21C567.375 618.237 567.434 618.276 567.485 618.326C567.535 618.376 567.575 618.435 567.602 618.501C567.629 618.566 567.643 618.636 567.643 618.707V621.423H575.741V618.707C575.741 618.636 575.755 618.566 575.782 618.501C575.809 618.435 575.849 618.376 575.899 618.326C575.949 618.276 576.009 618.237 576.074 618.21C576.14 618.183 576.21 618.169 576.281 618.169H589.244C589.315 618.169 589.385 618.183 589.451 618.21C589.516 618.237 589.576 618.276 589.626 618.326C589.677 618.376 589.716 618.435 589.743 618.501C589.771 618.566 589.784 618.636 589.784 618.707V621.423H627.591C629.294 621.423 630.979 621.756 632.552 622.404C634.125 623.052 635.554 624.001 636.758 625.199C637.962 626.396 638.917 627.818 639.568 629.382C640.219 630.946 640.554 632.623 640.554 634.316V634.316Z" fill="#3F3D56"/>
<path id="Vector_11" d="M605.85 388.907H445.199V385.614H372.354V388.907H211.042C208.16 388.907 205.396 390.046 203.358 392.073C201.32 394.1 200.175 396.849 200.175 399.716V618.515C200.175 621.382 201.32 624.131 203.358 626.158C205.396 628.185 208.16 629.324 211.042 629.324H605.85C608.732 629.324 611.496 628.185 613.534 626.158C615.571 624.131 616.716 621.382 616.716 618.515V399.716C616.716 398.296 616.435 396.891 615.889 395.58C615.343 394.268 614.543 393.077 613.534 392.073C612.524 391.069 611.327 390.273 610.008 389.73C608.69 389.187 607.277 388.907 605.85 388.907V388.907Z" fill="#3F3D56"/>
</g>
<path id="lap-circle-inner" d="M408.762 489.296C422.088 489.296 432.892 478.551 432.892 465.295C432.892 452.04 422.088 441.295 408.762 441.295C395.435 441.295 384.632 452.04 384.632 465.295C384.632 478.551 395.435 489.296 408.762 489.296Z" stroke="#D0CDE1" stroke-width="2" stroke-miterlimit="10"/>
<path id="lap-circle-outer" d="M401.04 497.936C414.366 497.936 425.17 487.191 425.17 473.936C425.17 460.68 414.366 449.935 401.04 449.935C387.713 449.935 376.91 460.68 376.91 473.936C376.91 487.191 387.713 497.936 401.04 497.936Z" fill="#D0CDE1"/>
<g id="tabel">
<path id="Vector_12" d="M765.884 644.819H58.3948V646.739H765.884V644.819Z" fill="#3F3D56"/>
<path id="Vector_13" d="M104.672 635.12H77.6464V662H104.672V635.12Z" fill="#D0CDE1"/>
<path id="Vector_14" d="M88.2673 613.999V646.64H121.084V613.999H88.2673ZM119.656 645.219H89.6862V615.42H119.656V645.219Z" fill="#3F3D56"/>
<path id="Vector_15" d="M730.12 635.12H703.094V662H730.12V635.12Z" fill="#D0CDE1"/>
<path id="Vector_16" d="M713.716 613.999V646.64H746.532V613.999H713.716ZM745.104 645.219H715.134V615.42H745.104V645.219Z" fill="#3F3D56"/>
</g>
<path id="Vector_17" d="M91.2884 221.246C133.582 221.246 167.868 187.145 167.868 145.078C167.868 103.012 133.582 68.9098 91.2884 68.9098C48.9949 68.9098 14.7092 103.012 14.7092 145.078C14.7092 187.145 48.9949 221.246 91.2884 221.246Z" fill="#6C63FF"/>
<path id="Vector_18" d="M111.013 130.075C110.009 129.326 108.788 128.921 107.533 128.921C106.277 128.921 105.056 129.326 104.052 130.075C103.364 130.595 102.798 131.256 102.392 132.014C101.878 132.99 101.656 134.092 101.752 135.19C101.847 136.288 102.257 137.335 102.932 138.209C103.607 139.082 104.52 139.745 105.561 140.12C106.603 140.494 107.731 140.564 108.812 140.321C109.892 140.078 110.88 139.532 111.659 138.748C112.437 137.965 112.974 136.976 113.206 135.898C113.437 134.821 113.354 133.7 112.966 132.668C112.577 131.636 111.9 130.736 111.013 130.075H111.013ZM107.533 138.154C106.61 138.151 105.726 137.785 105.074 137.137C104.422 136.488 104.054 135.609 104.052 134.692C104.056 133.991 104.27 133.308 104.667 132.73C105.007 132.24 105.468 131.846 106.006 131.585C106.544 131.325 107.14 131.206 107.738 131.242C108.335 131.278 108.913 131.467 109.415 131.79C109.918 132.113 110.328 132.559 110.607 133.086C110.885 133.613 111.022 134.202 111.004 134.797C110.987 135.392 110.815 135.972 110.506 136.482C110.197 136.991 109.761 137.413 109.24 137.706C108.719 137.999 108.131 138.153 107.533 138.154V138.154Z" fill="#3F3D56"/>
<path id="clock-hand" d="M111.014 90.837H104.052V130.075H111.014V90.837Z" fill="#3F3D56"/>
<g id="outer-clock">
<g id="outer-clock_2">
<g id="outer-clock_3">
<path id="Vector_19" d="M117.975 54.5648C111.041 53.6877 104.024 53.6877 97.09 54.5648C81.6425 56.5822 67.1011 62.9648 55.1912 72.9555C43.2813 82.9461 34.5029 96.1253 29.8976 110.929C27.8031 117.676 26.617 124.669 26.3703 131.726C26.3355 132.707 26.3123 133.699 26.3123 134.692C26.3338 156.11 34.8978 176.646 50.1249 191.791C65.352 206.937 85.9983 215.455 107.533 215.476C109.261 215.476 110.99 215.418 112.696 215.315C116.7 215.065 120.679 214.517 124.601 213.676C143.327 209.67 160.028 199.212 171.754 184.147C183.48 169.082 189.476 150.38 188.683 131.344C187.891 112.308 180.36 94.1637 167.422 80.1147C154.484 66.0657 136.971 57.0163 117.975 54.5648H117.975ZM132.955 208.99H132.943C126.402 211.21 119.593 212.557 112.696 212.995C110.99 213.11 109.261 213.168 107.533 213.168C86.6149 213.143 66.5613 204.866 51.7702 190.155C36.9792 175.443 28.6584 155.497 28.6328 134.692C28.6328 133.699 28.656 132.707 28.6908 131.726C29.4884 111.45 38.1406 92.2664 52.8363 78.1917C67.5319 64.1171 87.1316 56.242 107.533 56.2151C126.225 56.2161 144.31 62.8177 158.565 74.8435C172.821 86.8694 182.321 103.538 185.373 121.881C188.426 140.224 184.832 159.048 175.232 175.001C165.632 190.954 150.65 202.999 132.954 208.99H132.955Z" fill="#3F3D56"/>
<path id="Vector_20" d="M108.693 60.8314H106.372V76.9883H108.693V60.8314Z" fill="#3F3D56"/>
<path id="Vector_21" d="M55.8443 81.6485L54.2034 83.2806L65.6897 94.7052L67.3306 93.0731L55.8443 81.6485Z" fill="#3F3D56"/>
<path id="Vector_22" d="M33.2739 133.537V135.846H49.518V133.537H33.2739Z" fill="#3F3D56"/>
<path id="Vector_23" d="M54.2035 186.103L55.8444 187.735L67.3306 176.31L65.6897 174.678L54.2035 186.103Z" fill="#3F3D56"/>
<path id="Vector_24" d="M147.735 93.0731L149.375 94.7052L160.862 83.2805L159.221 81.6484L147.735 93.0731Z" fill="#3F3D56"/>
<path id="Vector_25" d="M165.547 133.537V135.846H181.791V133.537H165.547Z" fill="#3F3D56"/>
<path id="Vector_26" d="M149.376 174.678L147.735 176.31L159.221 187.735L160.862 186.103L149.376 174.678Z" fill="#3F3D56"/>
<path id="Vector_27" d="M108.693 192.395H106.372V208.552H108.693V192.395Z" fill="#3F3D56"/>
</g>
<path id="Vector_28" d="M117.975 34.2878H97.09V55.061H117.975V34.2878Z" fill="#3F3D56"/>
<path id="Vector_29" d="M107.533 37.75C122.912 37.75 135.38 33.3582 135.38 27.9405C135.38 22.5228 122.912 18.1309 107.533 18.1309C92.1531 18.1309 79.6855 22.5228 79.6855 27.9405C79.6855 33.3582 92.1531 37.75 107.533 37.75Z" fill="#3F3D56"/>
</g>
<path id="Vector_30" d="M218.135 211.96H0V214.268H218.135V211.96Z" fill="#3F3D56"/>
</g>
<g id="leaf-left">
<path id="Vector_31" d="M145.353 576.109C146.253 606.781 128.235 618.022 105.622 618.679C105.097 618.694 104.574 618.703 104.053 618.707C103.005 618.715 101.966 618.697 100.938 618.655C80.487 617.81 64.2989 607.013 63.4613 578.487C62.5946 548.967 99.4332 510.611 102.197 507.774L102.202 507.771C102.307 507.663 102.361 507.609 102.361 507.609C102.361 507.609 144.452 545.438 145.353 576.109Z" fill="#D0CDE1"/>
<path id="Vector_32" d="M103.994 614.03L118.359 592.784L104.023 616.316L104.053 618.707C103.005 618.715 101.966 618.697 100.938 618.655L101.651 587.923L101.631 587.686L101.657 587.64L101.725 584.736L85.9948 562.019L101.707 582.562L101.763 583.176L102.301 559.957L88.7137 536.405L102.339 555.878L102.197 507.774L102.198 507.614L102.202 507.771L103.104 545.684L115.487 530.284L103.145 548.95L103.415 569.719L114.81 549.449L103.457 572.772L103.607 584.321L120.178 556.085L103.658 588.35L103.994 614.03Z" fill="#3F3D56"/>
</g>
<g id="leaf-right">
<path id="Vector_33" d="M770.801 576.109C771.701 606.781 753.683 618.022 731.07 618.679C730.545 618.694 730.022 618.703 729.501 618.707C728.453 618.715 727.414 618.697 726.386 618.655C705.935 617.81 689.747 607.013 688.909 578.487C688.043 548.967 724.881 510.611 727.645 507.774L727.65 507.771C727.755 507.663 727.809 507.609 727.809 507.609C727.809 507.609 769.9 545.438 770.801 576.109Z" fill="#D0CDE1"/>
<path id="Vector_34" d="M729.442 614.03L743.806 592.784L729.471 616.316L729.501 618.707C728.453 618.715 727.414 618.697 726.386 618.655L727.098 587.923L727.079 587.686L727.105 587.64L727.173 584.736L711.443 562.019L727.155 582.562L727.211 583.176L727.749 559.957L714.162 536.405L727.787 555.878L727.645 507.774L727.645 507.614L727.65 507.771L728.552 545.684L740.935 530.284L728.593 548.95L728.863 569.719L740.258 549.449L728.905 572.772L729.055 584.321L745.626 556.085L729.106 588.35L729.442 614.03Z" fill="#3F3D56"/>
</g>
</g>
<defs>
<clipPath id="clip0">
<rect width="770.833" height="661.667" fill="white" transform="translate(0 0.333313)"/>
</clipPath>
</defs>
</svg>
