<svg width="639" height="756" viewBox="0 0 639 756" fill="none" xmlns="http://www.w3.org/2000/svg">
<g id="right-bottom">
<g id="splash-right2">
<path id="Vector 17" d="M634.225 882.179C678.282 948.568 712.986 900.17 773.146 868.643C777.815 837.94 784.048 757.281 771.628 680.263C756.104 583.991 711.955 704.904 643.487 681.053C575.018 657.202 614.279 713.839 559.46 762.361C504.642 810.883 590.168 815.79 634.225 882.179Z" fill="url(#paint0_linear)"/>
<path id="Vector 20" d="M662.925 898.201C729.686 981.362 760.004 923.789 824.145 888.001C822.875 850.686 812.404 752.379 780.691 657.671C741.049 539.286 715.603 685.064 629.394 652.783C543.185 620.501 602.118 691.523 548.05 748.329C493.982 805.134 596.165 815.039 662.925 898.201Z" fill="url(#paint1_linear)"/>
</g>
<g id="undraw_about_me_wa29 1">
<path id="Vector" d="M628.96 449.1C628.54 449.1 628.12 449.16 627.69 449.17C627.832 448.588 627.879 447.987 627.83 447.39C627.707 444.868 627.024 442.405 625.83 440.18C625.095 438.869 624.266 437.612 623.35 436.42C620.63 432.66 618.11 428.82 615.12 425.27C613.824 423.891 612.754 422.314 611.95 420.6C611.648 419.675 611.288 418.769 610.87 417.89C610.292 416.991 609.478 416.269 608.517 415.801C607.555 415.334 606.484 415.14 605.42 415.24C603.281 415.492 601.312 416.533 599.9 418.16C599.06 419.06 598.37 420.45 599.07 421.47C599.77 422.49 601.29 422.62 601.38 423.74C601.38 424.34 601.38 425.32 600.77 425.51C599.687 425.796 598.655 426.248 597.71 426.85C597.243 427.16 596.854 427.574 596.575 428.06C596.295 428.546 596.133 429.09 596.1 429.65C597.83 429.91 599.28 428.46 600.85 427.65C602.843 426.8 605.08 426.718 607.13 427.42C607.918 427.63 608.654 428.001 609.29 428.51C609.851 429.061 610.323 429.695 610.69 430.39C612.616 433.175 613.807 436.402 614.15 439.77L615.03 445.39C613.729 445.494 612.433 445.667 611.15 445.91C607.697 446.419 604.174 446.181 600.82 445.21C597.32 444.21 593.82 442.39 590.21 443.21C588.52 443.58 586.98 444.52 585.27 444.79C583.934 444.919 582.586 444.848 581.27 444.58L578.52 444.14C578.43 443.91 578.36 443.67 578.29 443.43C577.722 441.424 577.459 439.344 577.51 437.26C579.303 437.164 581.046 436.63 582.585 435.706C584.124 434.781 585.414 433.494 586.341 431.956C587.268 430.418 587.805 428.677 587.904 426.884C588.003 425.091 587.662 423.301 586.91 421.67C588.393 420.839 589.621 419.618 590.46 418.14L589.76 418.01L590.42 417.01C590.265 416.915 590.134 416.786 590.037 416.632C589.94 416.478 589.88 416.303 589.861 416.122C589.843 415.941 589.867 415.758 589.931 415.588C589.995 415.417 590.097 415.264 590.23 415.14C589.648 414.838 588.996 414.693 588.34 414.72C588.55 414.33 588.21 413.85 587.8 413.72C587.373 413.633 586.935 413.606 586.5 413.64C585.862 413.591 585.235 413.446 584.64 413.21C580.37 411.74 575.74 410.45 571.39 411.68C569.473 412.279 567.681 413.22 566.1 414.46C564.56 415.325 563.409 416.747 562.885 418.434C562.36 420.121 562.502 421.944 563.28 423.53C563.94 425.168 564.413 426.876 564.69 428.62C564.752 430.249 564.566 431.877 564.14 433.45C565.092 433.74 566.065 433.957 567.05 434.1C566.495 436.248 565.512 438.261 564.16 440.02C563.541 440.798 562.873 441.536 562.16 442.23H562.04C560.058 442.601 558.054 442.848 556.04 442.97C553.92 442.97 551.84 442.17 549.73 442.32C548.48 442.461 547.249 442.739 546.06 443.15C540.571 444.759 534.869 445.521 529.15 445.41L528.46 445.48L529.1 441.4C529.444 438.032 530.634 434.805 532.56 432.02C532.927 431.325 533.399 430.691 533.96 430.14C534.601 429.631 535.339 429.26 536.13 429.05C538.177 428.348 540.411 428.43 542.4 429.28C543.97 430.05 545.4 431.5 547.16 431.28C547.124 430.72 546.959 430.176 546.678 429.69C546.397 429.205 546.008 428.79 545.54 428.48C544.595 427.878 543.563 427.426 542.48 427.14C541.9 426.95 541.82 425.97 541.87 425.37C541.96 424.25 543.55 424.01 544.18 423.09C544.81 422.17 544.18 420.69 543.35 419.78C541.936 418.158 539.968 417.12 537.83 416.87C536.768 416.769 535.698 416.964 534.738 417.431C533.778 417.898 532.966 418.621 532.39 419.52C531.965 420.397 531.601 421.303 531.3 422.23C530.497 423.944 529.427 425.521 528.13 426.9C525.13 430.45 522.62 434.29 519.9 438.05C518.99 439.243 518.161 440.496 517.42 441.8C516.232 444.031 515.55 446.496 515.42 449.02C515.371 449.62 515.418 450.225 515.56 450.81C515.493 450.951 515.456 451.104 515.45 451.26C515.481 451.533 515.566 451.798 515.7 452.038C515.834 452.279 516.014 452.49 516.23 452.66C517.76 454.2 519.37 455.79 521.43 456.45C522.712 456.753 524.011 456.977 525.32 457.12C528.48 457.69 531.39 459.52 534.6 459.51C536.81 459.51 538.99 458.63 541.17 458.94C544.17 459.35 546.33 461.79 548.17 464.16C549.733 466.01 550.906 468.156 551.62 470.47C552.33 473.26 551.89 476.4 553.38 478.86C553.756 479.362 554.047 479.923 554.24 480.52C554.271 481.464 554.061 482.4 553.63 483.24C552.37 487.11 555.13 491.24 554.84 495.24C554.7 497.19 553.84 499.03 553.75 500.98C553.6 503.49 554.62 506.3 553.22 508.39C554.07 507.95 554.93 507.56 555.81 507.21C551.61 519.52 547.81 532.21 548.1 545.15C548.32 553.54 550.1 562.78 545.28 569.67C544.595 570.491 544.051 571.421 543.67 572.42C543.29 573.77 543.67 575.2 543.92 576.58C544.81 582.58 541.57 588.49 541.35 594.58C541.325 596.457 541.445 598.332 541.71 600.19L542.89 610.33C541.701 610.589 540.595 611.139 539.67 611.93C538.43 612.93 537.34 614.57 537.92 616.07C538.39 617.28 539.77 617.86 541.04 618.16C542.343 618.306 543.587 618.777 544.66 619.53C545.003 619.91 545.367 620.27 545.75 620.61C546.49 621.011 547.336 621.168 548.17 621.06C549.7 621 551.17 620.87 552.73 620.66C553.054 620.647 553.368 620.546 553.64 620.37C553.823 620.168 553.962 619.931 554.05 619.673C554.138 619.415 554.172 619.142 554.15 618.87C554.262 617.348 554.199 615.818 553.96 614.31C553.9 614.02 553.82 613.74 553.74 613.45C554.265 612.165 554.638 610.822 554.85 609.45C555.16 607.45 555.21 605.36 555.34 603.31C555.64 598.09 556.34 592.91 557.14 587.73L558.14 581.07C558.45 578.88 558.77 576.69 559.14 574.5C560.994 562.638 563.878 550.961 567.76 539.6C568.61 537.17 570.06 534.32 572.63 534.25L574.16 537.25C576.16 541.01 577.38 545.18 578.9 549.13C580.9 554.32 580.22 560.38 582.9 565.26C583.34 566.07 583.9 566.84 584.23 567.69C584.704 568.998 584.981 570.37 585.05 571.76L586.82 589.76C587.62 597.85 588.48 606.16 592.11 613.43C592.338 613.899 592.606 614.347 592.91 614.77C592.799 615.98 592.782 617.197 592.86 618.41C592.804 618.625 592.799 618.849 592.845 619.066C592.891 619.283 592.986 619.486 593.124 619.659C593.261 619.833 593.438 619.972 593.638 620.066C593.839 620.16 594.059 620.206 594.28 620.2C595.79 620.4 597.28 620.53 598.83 620.59C599.664 620.698 600.511 620.541 601.25 620.14C601.641 619.806 602.009 619.445 602.35 619.06C603.419 618.307 604.661 617.836 605.96 617.69C607.23 617.4 608.61 616.82 609.08 615.6C609.67 614.1 608.57 612.47 607.33 611.46C606.325 610.582 605.09 610.009 603.77 609.81C603.227 609.841 602.682 609.798 602.15 609.68C602.274 609.021 602.314 608.349 602.27 607.68C602.142 606.894 602.109 606.095 602.17 605.3C602.374 604.498 602.649 603.715 602.99 602.96C604.14 599.42 601.69 595.82 600.83 592.2C599.68 587.38 601.39 582.33 601.08 577.38C600.6 569.61 595.18 562.32 596.62 554.67C597.77 548.55 596.79 542.26 595.7 536.13L591.7 513.32C591.419 511.469 590.932 509.654 590.25 507.91C590.993 507.782 591.722 507.587 592.43 507.33C593.43 504.89 593.26 502.2 592.96 499.58C592.66 496.96 591.96 494.4 591.61 491.8C591.307 489.709 591.133 487.602 591.09 485.49C590.981 483.407 591.129 481.318 591.53 479.27C591.99 477.473 592.616 475.722 593.4 474.04C595.335 469.185 597.677 464.501 600.4 460.04C604.51 459.72 608.49 459.37 612.59 459.04C613.573 458.995 614.55 458.865 615.51 458.65C616.734 458.228 617.979 457.871 619.24 457.58C619.711 457.556 620.175 457.465 620.62 457.31C621.52 456.9 622.07 455.75 623.06 455.71C623.432 455.76 623.809 455.76 624.18 455.71C624.62 455.57 624.84 455.09 625.18 454.71C625.8 454.02 626.81 453.88 627.62 453.43C628.315 452.979 628.829 452.299 629.074 451.508C629.319 450.717 629.279 449.865 628.96 449.1V449.1Z" fill="url(#paint2_linear)"/>
<path id="Vector_2" d="M576.94 438.16C583.016 438.16 587.94 433.235 587.94 427.16C587.94 421.085 583.016 416.16 576.94 416.16C570.865 416.16 565.94 421.085 565.94 427.16C565.94 433.235 570.865 438.16 576.94 438.16Z" fill="#A1616A"/>
<path id="Vector_3" d="M564.24 440.85C563.116 442.232 561.86 443.502 560.49 444.64C566.953 448.493 574.634 449.757 581.99 448.18C581.72 447.43 580.74 447.32 580.05 446.94C579.154 446.304 578.544 445.342 578.35 444.26C577.609 441.624 577.391 438.869 577.71 436.15C577.845 435.49 577.845 434.81 577.71 434.15C577.326 433.16 576.589 432.348 575.64 431.87C574.082 430.899 572.401 430.142 570.64 429.62C568.82 429.08 567.78 428.83 567.71 430.95C567.636 434.535 566.421 438.003 564.24 440.85V440.85Z" fill="#A1616A"/>
<path id="Vector_4" d="M615.28 447.77L614.16 440.67C613.979 439.241 613.681 437.83 613.27 436.45C612.599 434.658 611.741 432.942 610.71 431.33C610.343 430.638 609.87 430.007 609.31 429.46C608.673 428.951 607.937 428.58 607.15 428.37C605.105 427.671 602.874 427.756 600.89 428.61C599.32 429.37 597.89 430.81 596.14 430.56C596.172 430.001 596.336 429.457 596.618 428.972C596.899 428.488 597.29 428.076 597.76 427.77C598.684 427.17 599.696 426.718 600.76 426.43C601.33 426.25 601.42 425.27 601.37 424.67C601.28 423.56 599.69 423.32 599.06 422.41C598.43 421.5 599.06 420.02 599.88 419.11C601.292 417.494 603.257 416.463 605.39 416.22C606.451 416.114 607.521 416.303 608.481 416.768C609.441 417.232 610.254 417.952 610.83 418.85C611.255 419.724 611.619 420.626 611.92 421.55C612.723 423.256 613.789 424.825 615.08 426.2C618.08 429.73 620.59 433.55 623.3 437.29C624.206 438.482 625.035 439.731 625.78 441.03C626.972 443.245 627.655 445.698 627.78 448.21C627.869 448.982 627.755 449.765 627.45 450.48C627.14 451.001 626.701 451.432 626.175 451.734C625.65 452.035 625.055 452.196 624.45 452.2C623.22 452.169 622.006 451.926 620.86 451.48L616.5 450.01C615.969 449.893 615.483 449.625 615.1 449.24C614.941 449.017 614.872 448.742 614.905 448.47C614.939 448.198 615.072 447.949 615.28 447.77V447.77Z" fill="#A1616A"/>
<path id="Vector_5" d="M528.131 449.34L529.24 442.24C529.43 440.812 529.731 439.401 530.141 438.02C530.807 436.226 531.666 434.51 532.701 432.9C533.058 432.208 533.528 431.579 534.091 431.04C534.724 430.525 535.46 430.153 536.251 429.95C538.297 429.248 540.531 429.33 542.521 430.18C544.091 430.94 545.521 432.38 547.271 432.13C547.236 431.571 547.072 431.028 546.791 430.543C546.509 430.059 546.119 429.647 545.651 429.34C544.726 428.741 543.714 428.289 542.651 428C542.081 427.82 541.991 426.84 542.041 426.24C542.131 425.13 543.711 424.89 544.351 423.98C544.991 423.07 544.351 421.59 543.521 420.69C542.111 419.069 540.145 418.034 538.011 417.79C536.95 417.685 535.88 417.875 534.92 418.339C533.96 418.803 533.147 419.523 532.571 420.42C532.149 421.294 531.788 422.196 531.49 423.12C530.684 424.824 529.618 426.393 528.331 427.77C525.331 431.3 522.821 435.12 520.101 438.86C519.196 440.051 518.371 441.3 517.631 442.6C516.443 444.817 515.76 447.269 515.631 449.78C515.545 450.557 515.662 451.342 515.971 452.06C516.287 452.585 516.734 453.019 517.269 453.319C517.804 453.619 518.407 453.774 519.021 453.77C520.247 453.744 521.459 453.5 522.601 453.05L526.971 451.62C527.499 451.505 527.982 451.237 528.36 450.85C528.525 450.618 528.593 450.33 528.55 450.049C528.507 449.767 528.357 449.513 528.131 449.34Z" fill="#A1616A"/>
<path id="Vector_6" d="M607.33 611.42C608.57 612.42 609.66 614.05 609.08 615.54C608.6 616.75 607.23 617.32 605.96 617.62C604.662 617.767 603.422 618.234 602.35 618.98C602.01 619.348 601.646 619.692 601.26 620.01C600.522 620.415 599.674 620.573 598.84 620.46C597.32 620.4 595.84 620.27 594.29 620.07C593.966 620.056 593.652 619.956 593.38 619.78C593.196 619.581 593.057 619.345 592.971 619.088C592.885 618.831 592.854 618.559 592.88 618.29C592.759 616.775 592.819 615.251 593.06 613.75C593.312 612.243 594.087 610.872 595.25 609.88C596.41 608.98 599.93 606.31 601.25 608.02C601.6 608.48 601.46 609.11 601.95 609.49C602.44 609.87 603.21 609.66 603.77 609.73C605.094 609.941 606.329 610.527 607.33 611.42Z" fill="#3F3D56"/>
<path id="Vector_7" d="M539.76 611.94C538.52 612.94 537.43 614.57 538.01 616.06C538.48 617.27 539.85 617.85 541.12 618.14C542.418 618.286 543.658 618.753 544.73 619.5C545.071 619.885 545.439 620.246 545.83 620.58C546.566 620.979 547.409 621.136 548.24 621.03C549.76 620.97 551.24 620.84 552.79 620.63C553.114 620.618 553.429 620.518 553.7 620.34C553.885 620.141 554.026 619.906 554.114 619.649C554.202 619.393 554.234 619.12 554.21 618.85C554.322 617.338 554.258 615.818 554.02 614.32C553.774 612.808 552.997 611.432 551.83 610.44C550.68 609.54 547.16 606.87 545.83 608.58C545.48 609.04 545.62 609.68 545.12 610.05C544.62 610.42 543.87 610.22 543.3 610.29C541.988 610.496 540.761 611.068 539.76 611.94Z" fill="#3F3D56"/>
<path id="Vector_8" d="M556.76 505.24C552.25 518.24 547.87 531.69 548.21 545.48C548.43 553.83 550.21 563.03 545.4 569.88C544.714 570.697 544.17 571.623 543.79 572.62C543.41 573.96 543.79 575.38 544.03 576.76C544.93 582.76 541.7 588.62 541.47 594.68C541.445 596.547 541.565 598.412 541.83 600.26L543.08 610.94C543.5 614.6 548.22 616.1 551.86 616.61C553.572 614.568 554.646 612.068 554.95 609.42C555.26 607.42 555.31 605.35 555.43 603.32C555.74 598.12 556.49 592.96 557.23 587.81L558.23 581.18C558.55 579 558.86 576.82 559.23 574.64C561.098 562.868 563.985 551.282 567.86 540.01C568.71 537.58 570.16 534.75 572.72 534.68L574.25 537.62C576.25 541.35 577.46 545.51 578.98 549.44C580.98 554.61 580.29 560.63 582.98 565.5C583.42 566.3 583.98 567.07 584.3 567.91C584.769 569.196 585.045 570.544 585.12 571.91L586.89 589.79C587.69 597.84 588.54 606.11 592.17 613.34C592.529 614.204 593.104 614.962 593.84 615.54C595.32 616.54 597.39 616.03 598.84 614.99C599.987 614.146 600.904 613.029 601.508 611.74C602.113 610.451 602.385 609.031 602.3 607.61C602.182 606.826 602.148 606.031 602.2 605.24C602.412 604.443 602.686 603.664 603.02 602.91C604.18 599.39 601.73 595.81 600.86 592.21C599.71 587.41 601.42 582.39 601.12 577.46C600.64 569.72 595.23 562.46 596.66 554.85C597.81 548.76 596.83 542.5 595.75 536.4L591.7 513.7C591.06 510.12 590.1 506.08 586.91 504.33C585.082 503.511 583.076 503.167 581.08 503.33C572.81 503.33 564.91 504.48 556.76 505.24Z" fill="#3F3D56"/>
<path id="Vector_9" d="M628.96 449.91C626.048 450.203 623.116 449.596 620.56 448.17C619.589 447.525 618.553 446.982 617.47 446.55C615.47 445.9 613.27 446.47 611.17 446.78C607.722 447.279 604.208 447.041 600.86 446.08C597.36 445.08 593.86 443.27 590.26 444.08C588.57 444.45 587.04 445.38 585.33 445.65C583.994 445.785 582.645 445.714 581.33 445.44L569.93 443.66C567.357 443.145 564.73 442.957 562.11 443.1C560.127 443.469 558.123 443.72 556.11 443.85C554 443.85 551.92 443.05 549.81 443.19C548.563 443.332 547.336 443.61 546.15 444.02C540.673 445.62 534.985 446.379 529.28 446.27C524.731 446.568 520.347 448.088 516.59 450.67C516.331 450.813 516.106 451.012 515.934 451.253C515.761 451.493 515.643 451.769 515.59 452.06C515.623 452.331 515.71 452.593 515.846 452.83C515.981 453.067 516.163 453.274 516.38 453.44C517.9 454.98 519.51 456.56 521.57 457.22C522.848 457.521 524.144 457.741 525.45 457.88C528.6 458.46 531.51 460.27 534.71 460.27C536.92 460.27 539.09 459.39 541.27 459.7C544.27 460.11 546.42 462.53 548.27 464.89C549.825 466.734 550.998 468.868 551.72 471.17C552.42 473.95 551.98 477.07 553.47 479.52C553.844 480.02 554.134 480.577 554.33 481.17C554.362 482.111 554.152 483.044 553.72 483.88C552.46 487.73 555.22 491.8 554.93 495.88C554.79 497.81 553.93 499.65 553.84 501.58C553.7 504.09 554.71 506.88 553.31 508.96C558.712 506.238 564.715 504.928 570.76 505.15C571.765 505.174 572.767 505.268 573.76 505.43C575.688 505.823 577.586 506.351 579.44 507.01C583.62 508.34 588.22 509.29 592.34 507.77C593.34 505.34 593.17 502.66 592.86 500.06C592.55 497.46 591.91 494.9 591.52 492.31C591.217 490.23 591.043 488.132 591 486.03C590.891 483.957 591.039 481.877 591.44 479.84C591.898 478.052 592.524 476.311 593.31 474.64C595.239 469.782 597.581 465.099 600.31 460.64C604.41 460.31 608.38 459.96 612.48 459.64C613.458 459.586 614.431 459.456 615.39 459.25C616.611 458.833 617.852 458.479 619.11 458.19C619.581 458.164 620.046 458.069 620.49 457.91C621.39 457.5 621.95 456.36 622.93 456.33C623.302 456.375 623.678 456.375 624.05 456.33C624.49 456.2 624.7 455.71 625.05 455.33C625.67 454.64 626.68 454.5 627.49 454.06C628.17 453.639 628.687 452.998 628.954 452.243C629.221 451.489 629.223 450.666 628.96 449.91V449.91Z" fill="#6C63FF"/>
<path id="Vector_10" d="M578.85 431.13C579.169 431.381 579.557 431.529 579.963 431.554C580.368 431.579 580.772 431.48 581.12 431.27C581.556 430.859 581.85 430.32 581.96 429.73C582.319 428.48 582.61 427.212 582.83 425.93C582.888 425.372 583.058 424.831 583.33 424.34C584.06 423.22 585.64 423.16 586.87 422.65C588.39 421.828 589.648 420.594 590.5 419.09L589.81 418.95L590.46 417.95C590.305 417.857 590.175 417.728 590.079 417.576C589.983 417.423 589.923 417.25 589.906 417.07C589.888 416.891 589.913 416.709 589.978 416.541C590.043 416.372 590.146 416.222 590.28 416.1C589.696 415.789 589.04 415.641 588.38 415.67C588.59 415.29 588.25 414.81 587.84 414.67C587.416 414.581 586.981 414.558 586.55 414.6C585.911 414.548 585.284 414.399 584.69 414.16C580.43 412.7 575.81 411.41 571.47 412.64C569.552 413.233 567.759 414.172 566.18 415.41C564.652 416.269 563.509 417.679 562.987 419.352C562.465 421.025 562.601 422.835 563.37 424.41C564.025 426.035 564.495 427.729 564.77 429.46C564.834 431.085 564.652 432.71 564.23 434.28C565.414 434.66 566.639 434.899 567.88 434.99C569.128 435.086 570.37 434.731 571.38 433.99C572.38 433.13 572.94 431.8 573.76 430.72C574.074 430.244 574.504 429.855 575.01 429.589C575.515 429.323 576.079 429.19 576.65 429.2C577.76 429.37 577.96 430.5 578.85 431.13Z" fill="#3F3D56"/>
<path id="Vector_11" d="M549.93 620.01H538.22C537.873 620.08 537.561 620.267 537.337 620.541C537.113 620.814 536.991 621.157 536.991 621.51C536.991 621.863 537.113 622.206 537.337 622.479C537.561 622.753 537.873 622.94 538.22 623.01H540.56V642.88H500.49C500.397 642.724 500.267 642.593 500.112 642.499C499.957 642.405 499.781 642.35 499.6 642.34H487.9C487.553 642.41 487.241 642.597 487.017 642.871C486.793 643.144 486.671 643.487 486.671 643.84C486.671 644.193 486.793 644.536 487.017 644.809C487.241 645.083 487.553 645.27 487.9 645.34H490.24V665.75H451.55C451.515 665.472 451.387 665.214 451.188 665.018C450.988 664.822 450.728 664.699 450.45 664.67H438.76C438.404 664.728 438.08 664.911 437.847 665.186C437.613 665.461 437.485 665.809 437.485 666.17C437.485 666.531 437.613 666.879 437.847 667.154C438.08 667.429 438.404 667.612 438.76 667.67H439.93V688.67H400.6C400.453 688.587 400.288 688.542 400.12 688.54H388.42C388.073 688.61 387.761 688.797 387.537 689.071C387.313 689.344 387.191 689.687 387.191 690.04C387.191 690.393 387.313 690.736 387.537 691.009C387.761 691.283 388.073 691.47 388.42 691.54H389.59V711.54H350.76C350.675 711.343 350.536 711.174 350.359 711.053C350.182 710.933 349.974 710.866 349.76 710.86H338.06C337.713 710.93 337.401 711.117 337.177 711.391C336.953 711.664 336.831 712.007 336.831 712.36C336.831 712.713 336.953 713.056 337.177 713.329C337.401 713.603 337.713 713.79 338.06 713.86H339.23V736.01H603.76V620.01H549.93Z" fill="#3F3D56"/>
<path id="Vector_12" d="M270.46 744.68C278.91 744.68 285.76 743.364 285.76 741.74C285.76 740.116 278.91 738.8 270.46 738.8C262.01 738.8 255.16 740.116 255.16 741.74C255.16 743.364 262.01 744.68 270.46 744.68Z" fill="#6C63FF"/>
<path id="Vector_13" d="M270.21 742.82C271.193 742.82 271.99 741.777 271.99 740.49C271.99 739.203 271.193 738.16 270.21 738.16C269.227 738.16 268.43 739.203 268.43 740.49C268.43 741.777 269.227 742.82 270.21 742.82Z" fill="#3F3D56"/>
<path id="Vector_14" d="M270.21 739.97C271.193 739.97 271.99 738.927 271.99 737.64C271.99 736.353 271.193 735.31 270.21 735.31C269.227 735.31 268.43 736.353 268.43 737.64C268.43 738.927 269.227 739.97 270.21 739.97Z" fill="#3F3D56"/>
<path id="Vector_15" d="M270.21 737.12C271.193 737.12 271.99 736.077 271.99 734.79C271.99 733.503 271.193 732.46 270.21 732.46C269.227 732.46 268.43 733.503 268.43 734.79C268.43 736.077 269.227 737.12 270.21 737.12Z" fill="#3F3D56"/>
<path id="Vector_16" d="M270.21 734.27C271.193 734.27 271.99 733.227 271.99 731.94C271.99 730.653 271.193 729.61 270.21 729.61C269.227 729.61 268.43 730.653 268.43 731.94C268.43 733.227 269.227 734.27 270.21 734.27Z" fill="#3F3D56"/>
<path id="Vector_17" d="M270.21 731.42C271.193 731.42 271.99 730.377 271.99 729.09C271.99 727.803 271.193 726.76 270.21 726.76C269.227 726.76 268.43 727.803 268.43 729.09C268.43 730.377 269.227 731.42 270.21 731.42Z" fill="#3F3D56"/>
<path id="Vector_18" d="M270.21 728.57C271.193 728.57 271.99 727.527 271.99 726.24C271.99 724.953 271.193 723.91 270.21 723.91C269.227 723.91 268.43 724.953 268.43 726.24C268.43 727.527 269.227 728.57 270.21 728.57Z" fill="#3F3D56"/>
<path id="Vector_19" d="M270.21 725.72C271.193 725.72 271.99 724.677 271.99 723.39C271.99 722.103 271.193 721.06 270.21 721.06C269.227 721.06 268.43 722.103 268.43 723.39C268.43 724.677 269.227 725.72 270.21 725.72Z" fill="#3F3D56"/>
<path id="Vector_20" d="M276.87 703.88C277.118 703.564 277.342 703.23 277.54 702.88L272.86 702.11H277.92C278.434 700.99 278.7 699.772 278.7 698.54C278.702 697.447 278.491 696.363 278.08 695.35L271.29 698.87L277.55 694.27C276.961 693.261 276.17 692.384 275.228 691.693C274.286 691.002 273.212 690.511 272.073 690.253C270.933 689.994 269.753 689.972 268.605 690.188C267.456 690.404 266.365 690.854 265.397 691.51C264.43 692.165 263.608 693.013 262.982 693.999C262.356 694.986 261.939 696.09 261.757 697.244C261.575 698.399 261.633 699.578 261.926 700.709C262.219 701.84 262.741 702.899 263.46 703.82C263.072 704.299 262.736 704.819 262.46 705.37L268.53 708.53L262.05 706.35C261.598 707.693 261.487 709.128 261.728 710.525C261.969 711.921 262.554 713.236 263.43 714.35C262.437 715.609 261.818 717.122 261.645 718.717C261.471 720.311 261.751 721.922 262.45 723.365C263.15 724.808 264.242 726.025 265.601 726.876C266.96 727.728 268.531 728.179 270.135 728.179C271.738 728.179 273.31 727.728 274.669 726.876C276.028 726.025 277.12 724.808 277.819 723.365C278.519 721.922 278.798 720.311 278.625 718.717C278.452 717.122 277.833 715.609 276.84 714.35C278.025 712.847 278.669 710.989 278.669 709.075C278.669 707.161 278.025 705.303 276.84 703.8L276.87 703.88Z" fill="#6C63FF"/>
<path id="Vector_21" opacity="0.1" d="M261.63 709.15C261.63 711.066 262.274 712.925 263.46 714.43C262.467 715.689 261.848 717.202 261.675 718.797C261.502 720.391 261.781 722.002 262.481 723.445C263.18 724.888 264.272 726.105 265.631 726.956C266.99 727.808 268.561 728.259 270.165 728.259C271.769 728.259 273.34 727.808 274.699 726.956C276.058 726.105 277.15 724.888 277.849 723.445C278.549 722.002 278.828 720.391 278.655 718.797C278.482 717.202 277.863 715.689 276.87 714.43C278.02 713.01 261.63 708.19 261.63 709.15Z" fill="black"/>
</g>
</g>
<defs>
<linearGradient id="paint0_linear" x1="587.919" y1="854.797" x2="794.464" y2="689.779" gradientUnits="userSpaceOnUse">
<stop stop-color="#21E6C1"/>
<stop offset="0.71875" stop-color="#278EA5" stop-opacity="0.65"/>
</linearGradient>
<linearGradient id="paint1_linear" x1="585.28" y1="790.249" x2="643.369" y2="683.339" gradientUnits="userSpaceOnUse">
<stop stop-color="#21E6C1" stop-opacity="0.17"/>
<stop offset="0.71875" stop-color="#278EA5" stop-opacity="0.21"/>
</linearGradient>
<linearGradient id="paint2_linear" x1="67507.2" y1="145882" x2="67507.2" y2="101829" gradientUnits="userSpaceOnUse">
<stop stop-color="#808080" stop-opacity="0.25"/>
<stop offset="0.54" stop-color="#808080" stop-opacity="0.12"/>
<stop offset="1" stop-color="#808080" stop-opacity="0.1"/>
</linearGradient>
</defs>
</svg>
