<svg id="Capa_1" enable-background="new 0 0 512 512" height="512" viewBox="0 0 512 512" width="512" xmlns="http://www.w3.org/2000/svg"><g><path d="m512 256c0 24.78-3.52 48.73-10.09 71.39-7.71 26.63-86.666 10.94-102.036 33.22-15.82 22.96 31.716 83.74 9.426 100.43-42.74 32-95.81 50.96-153.3 50.96s-110.56-18.96-153.3-50.96c-22.29-16.69-41.77-36.93-57.59-59.89-15.37-22.28-27.31-47.13-35.02-73.76-6.57-22.66-10.09-46.61-10.09-71.39s3.52-48.73 10.09-71.39c2.45-8.47 5.33-16.75 8.61-24.82 8.25-20.34 19.04-39.37 31.97-56.71 46.68-62.56 121.27-103.08 205.33-103.08s158.65 40.52 205.33 103.08c12.93 17.34 23.72 36.37 31.97 56.71 3.28 8.07 6.16 16.35 8.61 24.82 6.57 22.66 10.09 46.61 10.09 71.39z" fill="#dc4355"/><g><path d="m390.888 41.371h-149.728c-11.852 0-22.336 7.684-25.904 18.987l-19.621 62.153h240.778l-19.621-62.153c-3.568-11.303-14.052-18.987-25.904-18.987z" fill="#d4daf8"/><path d="m388.728 86.6h-145.411c-7.617 0-13.04-7.398-10.748-14.662l1.754-5.558c.95-3 3.7-5.01 6.84-5.01h149.72c3.15 0 5.89 2.01 6.84 5.01l1.754 5.558c2.291 7.264-3.132 14.662-10.749 14.662z" fill="#e9eeff"/><path d="m150.338 74.957h-69.008c-10.146 0-18.37 8.225-18.37 18.37v25.525h105.748v-25.524c0-10.146-8.225-18.371-18.37-18.371z" fill="#50405a"/><path d="m112.92 74.958c-10.15 0-18.37 8.22-18.37 18.37v25.52h-31.59v-25.52c0-10.15 8.22-18.37 18.37-18.37z" fill="#362a40"/><path d="m501.91 159.79v167.6c-4.464 15.4-38.042 18.832-45.171 32.887-5.2 10.251 16.637 31.475 10.155 40.875-15.828 22.953-35.305 43.195-57.594 59.887h-339.33c-33.07 0-59.88-26.82-59.88-59.89l34.63-109.708-34.63-131.651c0-26.32 16.98-48.68 40.58-56.71 6.05-2.06 12.55-3.18 19.3-3.18h372.06c6.75 0 13.25 1.12 19.3 3.18 23.6 8.03 40.58 30.39 40.58 56.71z" fill="#e9eeff"/><path d="m123.956 461.036h-53.98c-33.08 0-59.89-26.82-59.89-59.89l34.634-109.705-34.634-131.655c0-33.08 26.81-59.89 59.89-59.89h53.98c-33.08 0-59.89 26.81-59.89 59.89v241.36c0 33.07 26.81 59.89 59.89 59.89z" fill="#d4daf8"/><path d="m501.91 159.79v167.6c-7.71 26.63-19.65 51.48-35.02 73.76h-456.8v-241.36z" fill="#50405a"/><path d="m10.086 159.786h53.98v241.36h-53.98z" fill="#362a40"/><circle cx="290.418" cy="280.468" fill="#e9eeff" r="147.648"/><path d="m298.96 427.878c-2.83.16-5.67.24-8.54.24-81.55 0-147.65-66.11-147.65-147.65s66.1-147.65 147.65-147.65c2.87 0 5.71.08 8.54.25-77.57 4.42-139.11 68.73-139.11 147.4s61.54 142.98 139.11 147.41z" fill="#d4daf8"/><circle cx="290.418" cy="280.468" fill="#d4daf8" r="120.681"/><circle cx="290.418" cy="280.468" fill="#6daef7" r="95.133"/><circle cx="290.418" cy="280.468" fill="#5892e6" r="29.004"/><path d="m311.375 373.278c-6.74 1.52-13.75 2.32-20.95 2.32-52.55 0-95.14-42.59-95.14-95.13 0-52.55 42.59-95.14 95.14-95.14 7.2 0 14.21.8 20.95 2.32-42.47 9.54-74.19 47.47-74.19 92.82 0 45.34 31.72 83.27 74.19 92.81z" fill="#5892e6"/><circle cx="129.788" cy="367.273" fill="#e9eeff" r="22.945"/><path d="m138.983 388.293c-2.81 1.24-5.92 1.92-9.19 1.92-12.68 0-22.95-10.27-22.95-22.94 0-12.68 10.27-22.95 22.95-22.95 3.27 0 6.38.68 9.19 1.92-8.1 3.54-13.75 11.62-13.75 21.03 0 9.4 5.65 17.48 13.75 21.02z" fill="#d4daf8"/></g></g></svg>